<svg width="39" height="39" viewBox="0 0 39 39" fill="none" xmlns="http://www.w3.org/2000/svg">
<path d="M19.5 39C30.2695 39 39 30.2695 39 19.5C39 8.73045 30.2695 0 19.5 0C8.73045 0 0 8.73045 0 19.5C0 30.2695 8.73045 39 19.5 39Z" fill="#CB2027"/>
<path d="M21.0737 26.1118C19.5995 25.9978 18.9801 25.2668 17.824 24.565C17.1885 27.8989 16.412 31.0948 14.1119 32.7643C13.401 27.7254 15.154 23.9407 15.9681 19.9234C14.5805 17.5875 16.1349 12.8858 19.0618 14.0443C22.664 15.4688 15.9431 22.73 20.455 23.6369C25.1654 24.5838 27.0884 15.4636 24.1671 12.4972C19.9464 8.2143 11.8816 12.3998 12.8734 18.5309C13.1149 20.0298 14.6639 20.4848 13.4921 22.553C10.7909 21.9548 9.9851 19.8243 10.0887 16.984C10.2559 12.3348 14.2662 9.07949 18.2887 8.62899C23.3759 8.05961 28.1506 10.497 28.8097 15.2822C29.5511 20.6829 26.5131 26.5317 21.0737 26.1118Z" fill="#F1F2F2"/>
</svg>
