<svg width="19" height="19" viewBox="0 0 19 19" fill="none" xmlns="http://www.w3.org/2000/svg">
<path d="M18.5334 2.6657C18.3477 2.16256 18.0515 1.70713 17.6666 1.33331C17.2927 0.948408 16.8376 0.652185 16.3342 0.466506C15.9259 0.307925 15.3125 0.119167 14.1827 0.0677434C12.9606 0.0120091 12.5941 0 9.50009 0C6.40576 0 6.03933 0.0117012 4.81748 0.0674355C3.68771 0.119167 3.07401 0.307925 2.66601 0.466506C2.16256 0.652185 1.70713 0.948408 1.33362 1.33331C0.948716 1.70713 0.652493 2.16225 0.466506 2.6657C0.307925 3.07401 0.119167 3.68771 0.0677434 4.81748C0.0120091 6.03933 0 6.40576 0 9.50009C0 12.5941 0.0120091 12.9606 0.0677434 14.1827C0.119167 15.3125 0.307925 15.9259 0.466506 16.3342C0.652493 16.8376 0.948408 17.2927 1.33331 17.6666C1.70713 18.0515 2.16225 18.3477 2.6657 18.5334C3.07401 18.6923 3.68771 18.881 4.81748 18.9324C6.03933 18.9882 6.40545 18.9999 9.49979 18.9999C12.5944 18.9999 12.9609 18.9882 14.1824 18.9324C15.3122 18.881 15.9259 18.6923 16.3342 18.5334C17.3448 18.1435 18.1435 17.3448 18.5334 16.3342C18.692 15.9259 18.8807 15.3125 18.9324 14.1827C18.9882 12.9606 18.9999 12.5941 18.9999 9.50009C18.9999 6.40576 18.9882 6.03933 18.9324 4.81748C18.881 3.68771 18.6923 3.07401 18.5334 2.6657ZM9.50009 15.4501C6.21361 15.4501 3.54945 12.7863 3.54945 9.49979C3.54945 6.21331 6.21361 3.54945 9.50009 3.54945C12.7863 3.54945 15.4504 6.21331 15.4504 9.49979C15.4504 12.7863 12.7863 15.4501 9.50009 15.4501ZM15.6857 4.70478C14.9177 4.70478 14.2951 4.08216 14.2951 3.31419C14.2951 2.54623 14.9177 1.92361 15.6857 1.92361C16.4537 1.92361 17.0763 2.54623 17.0763 3.31419C17.076 4.08216 16.4537 4.70478 15.6857 4.70478Z" fill="#3B5998"/>
</svg>
