<svg width="39" height="39" viewBox="0 0 39 39" fill="none" xmlns="http://www.w3.org/2000/svg">
<path d="M19.5 39C30.2696 39 39 30.2696 39 19.5C39 8.73045 30.2696 0 19.5 0C8.73045 0 0 8.73045 0 19.5C0 30.2696 8.73045 39 19.5 39Z" fill="#007AB9"/>
<path d="M31.151 21.0697V29.1092H26.4899V21.6085C26.4899 19.7252 25.817 18.4391 24.1294 18.4391C22.8415 18.4391 22.0764 19.3049 21.7385 20.1434C21.6158 20.443 21.5842 20.8591 21.5842 21.2794V29.1088H16.9228C16.9228 29.1088 16.9854 16.4052 16.9228 15.0902H21.5845V17.0768C21.5751 17.0924 21.5619 17.1077 21.5536 17.1227H21.5845V17.0768C22.204 16.1237 23.3087 14.761 25.7853 14.761C28.8519 14.761 31.151 16.7646 31.151 21.0697ZM12.0466 8.33276C10.4521 8.33276 9.40894 9.37941 9.40894 10.7545C9.40894 12.1005 10.4219 13.1773 11.9854 13.1773H12.0156C13.6414 13.1773 14.6522 12.1005 14.6522 10.7545C14.6213 9.37941 13.6414 8.33276 12.0466 8.33276ZM9.68598 29.1092H14.3456V15.0902H9.68598V29.1092Z" fill="#F1F2F2"/>
</svg>
