<svg width="49" height="57" viewBox="0 0 49 57" fill="none" xmlns="http://www.w3.org/2000/svg">
<path d="M43.4966 11.438C43.0818 11.438 42.6693 11.286 42.3393 10.9725C37.2816 6.194 30.7916 3.5625 24.0633 3.5625C17.335 3.5625 10.845 6.194 5.78727 10.9749C5.08373 11.6375 3.99748 11.5829 3.3581 10.8585C2.71873 10.1317 2.76915 9.00362 3.4704 8.341C9.16519 2.96162 16.4779 0 24.0633 0C31.6487 0 38.9614 2.96162 44.6562 8.341C45.3575 9.00362 45.4079 10.1294 44.7685 10.8585C44.4293 11.2432 43.9641 11.438 43.4966 11.438Z" fill="white"/>
<path d="M46.407 23.0779C45.8548 23.0779 45.3093 22.8024 44.9793 22.2894C40.2081 14.9269 32.3889 10.5308 24.0633 10.5308C15.7377 10.5308 7.91852 14.9269 3.14728 22.2894C2.6179 23.1088 1.54769 23.3273 0.761653 22.7763C-0.0266805 22.2276 -0.237514 21.1209 0.291861 20.3039C5.70248 11.9558 14.5896 6.97064 24.0633 6.97064C33.5371 6.97064 42.4241 11.9558 47.8348 20.3063C48.3641 21.1233 48.1556 22.23 47.365 22.7786C47.0716 22.9805 46.7393 23.0779 46.407 23.0779Z" fill="white"/>
<path d="M18.6344 57C18.1921 57 17.7498 56.8242 17.4129 56.4727C17.0371 56.0809 8.23022 46.7637 8.23022 37.7934C8.23022 28.4834 15.3321 20.9095 24.0633 20.9095C32.7946 20.9095 39.8965 28.4834 39.8965 37.7934C39.8965 38.7766 39.1265 39.5746 38.1777 39.5746C37.229 39.5746 36.459 38.7766 36.459 37.7934C36.459 30.4475 30.8994 24.472 24.0633 24.472C17.2273 24.472 11.6677 30.4475 11.6677 37.7934C11.6677 45.315 19.7733 53.8792 19.8558 53.9647C20.525 54.663 20.5204 55.7911 19.8444 56.4846C19.5098 56.829 19.0721 57 18.6344 57Z" fill="white"/>
<path d="M29.4924 57C25.3582 57 15.7745 48.849 14.8463 39.7718C14.5186 36.5631 15.504 33.2809 17.4795 30.9914C19.1982 29.0011 21.5197 27.8968 24.0153 27.8825H24.0634C26.4972 27.8825 28.798 28.8729 30.5488 30.6755C32.3776 32.5589 33.3836 35.0883 33.3836 37.7958V38.9571C33.3836 41.819 35.5332 44.1465 38.1778 44.1465C40.8224 44.1465 42.9742 41.819 42.9742 38.9571V38.551C42.9742 27.4598 35.2215 18.2329 25.3238 17.5489C20.163 17.1855 15.213 19.0333 11.3928 22.7335C7.42821 26.5763 5.15488 32.0673 5.15488 37.7958C5.15488 42.5077 6.69488 47.0986 9.49071 50.7229C10.082 51.4924 9.96279 52.611 9.22029 53.2261C8.48008 53.8412 7.39842 53.7154 6.80258 52.9459C3.52321 48.6922 1.71509 43.3105 1.71509 37.7934C1.71509 31.0816 4.38717 24.643 9.04154 20.1305C13.563 15.7463 19.4251 13.566 25.5484 13.9911C37.2451 14.801 46.4094 25.5883 46.4094 38.5486V38.9548C46.4094 43.7807 42.7153 47.7066 38.1755 47.7066C33.6357 47.7066 29.9438 43.7807 29.9438 38.9548V37.7934C29.9438 36.0406 29.2976 34.4114 28.1242 33.2001C27.0242 32.0649 25.5828 31.4426 24.0634 31.4426C24.0519 31.4426 24.0428 31.4426 24.0313 31.4426C22.0949 31.4521 20.7909 32.4948 20.0392 33.3664C18.6986 34.9173 18.034 37.1735 18.2609 39.3965C19.0195 46.8017 27.2305 53.4399 29.4901 53.4399C30.4388 53.4399 31.2088 54.2379 31.2088 55.2211C31.2088 56.2044 30.4411 57 29.4924 57Z" fill="white"/>
<path d="M35.8698 53.5159C29.719 53.5159 22.2092 45.7259 22.2092 36.632C22.2092 35.6487 22.9792 34.8508 23.928 34.8508C24.8767 34.8508 25.6467 35.6487 25.6467 36.632C25.6467 43.681 31.3644 49.9534 35.8698 49.9534C36.8186 49.9534 37.5886 50.7514 37.5886 51.7346C37.5886 52.7179 36.8186 53.5159 35.8698 53.5159Z" fill="white"/>
</svg>
