<svg width="29" height="29" viewBox="0 0 29 29" fill="none" xmlns="http://www.w3.org/2000/svg">
<g clip-path="url(#clip0_2_100)">
<path d="M28.5 14.5C28.5 22.232 22.232 28.5 14.5 28.5C6.76801 28.5 0.5 22.232 0.5 14.5C0.5 6.76801 6.76801 0.5 14.5 0.5C22.232 0.5 28.5 6.76801 28.5 14.5Z" fill="#3B5998" stroke="white"/>
<path d="M17.9965 6.1353V8.37093H16.3897C16.1453 8.37093 15.8103 8.43041 15.5272 8.6626C15.2253 8.9102 15.0581 9.29158 15.0581 9.77896V11.7395V12.2395H15.5581H17.9336L17.694 14.5676H15.5579H15.0579V15.0676V24.0465H12.1378V15.0676V14.5676H11.6378H10.2734V12.2364H11.6378H12.1378V11.7364V9.58071C12.1378 8.87491 12.3077 8.00316 12.8095 7.32125C13.292 6.66554 14.1242 6.1255 15.5917 6.12524C15.5921 6.12524 15.5924 6.12524 15.5928 6.12524L17.9965 6.1353Z" fill="white" stroke="white"/>
</g>
<defs>
<clipPath id="clip0_2_100">
<rect width="29" height="29" fill="white"/>
</clipPath>
</defs>
</svg>
