<svg width="29" height="29" viewBox="0 0 29 29" fill="none" xmlns="http://www.w3.org/2000/svg">
<g clip-path="url(#clip0_2_106)">
<path d="M17.2754 14.5C17.2754 16.0329 16.0328 17.2754 14.5 17.2754C12.9672 17.2754 11.7246 16.0329 11.7246 14.5C11.7246 12.9672 12.9672 11.7246 14.5 11.7246C16.0328 11.7246 17.2754 12.9672 17.2754 14.5Z" fill="#3B5998"/>
<path d="M20.9906 9.58955C20.8572 9.22802 20.6443 8.90079 20.3677 8.63219C20.0991 8.35562 19.7721 8.14278 19.4104 8.00936C19.117 7.89542 18.6763 7.75979 17.8645 7.72284C16.9863 7.68279 16.7231 7.67416 14.4999 7.67416C12.2765 7.67416 12.0133 7.68257 11.1353 7.72262C10.3235 7.75979 9.88259 7.89542 9.58943 8.00936C9.22768 8.14278 8.90045 8.35562 8.63207 8.63219C8.35551 8.90079 8.14266 9.2278 8.00903 9.58955C7.89508 9.88293 7.75945 10.3239 7.7225 11.1357C7.68246 12.0136 7.67383 12.2769 7.67383 14.5002C7.67383 16.7234 7.68246 16.9867 7.7225 17.8648C7.75945 18.6766 7.89508 19.1173 8.00903 19.4107C8.14266 19.7725 8.35529 20.0995 8.63185 20.3681C8.90045 20.6446 9.22746 20.8575 9.58921 20.9909C9.88259 21.1051 10.3235 21.2407 11.1353 21.2776C12.0133 21.3177 12.2763 21.3261 14.4997 21.3261C16.7233 21.3261 16.9866 21.3177 17.8643 21.2776C18.676 21.2407 19.117 21.1051 19.4104 20.9909C20.1365 20.7108 20.7105 20.1369 20.9906 19.4107C21.1045 19.1173 21.2401 18.6766 21.2773 17.8648C21.3174 16.9867 21.3258 16.7234 21.3258 14.5002C21.3258 12.2769 21.3174 12.0136 21.2773 11.1357C21.2404 10.3239 21.1047 9.88293 20.9906 9.58955ZM14.4999 18.7755C12.1385 18.7755 10.2242 16.8614 10.2242 14.5C10.2242 12.1386 12.1385 10.2245 14.4999 10.2245C16.8611 10.2245 18.7754 12.1386 18.7754 14.5C18.7754 16.8614 16.8611 18.7755 14.4999 18.7755ZM18.9444 11.0547C18.3926 11.0547 17.9453 10.6073 17.9453 10.0555C17.9453 9.5037 18.3926 9.05633 18.9444 9.05633C19.4962 9.05633 19.9436 9.5037 19.9436 10.0555C19.9434 10.6073 19.4962 11.0547 18.9444 11.0547Z" fill="#3B5998"/>
<path d="M14.5 0C6.4931 0 0 6.4931 0 14.5C0 22.5069 6.4931 29 14.5 29C22.5069 29 29 22.5069 29 14.5C29 6.4931 22.5069 0 14.5 0ZM22.7759 17.9327C22.7357 18.8191 22.5947 19.4242 22.389 19.9539C21.9564 21.0723 21.0723 21.9564 19.9539 22.389C19.4244 22.5947 18.8191 22.7355 17.933 22.7759C17.0451 22.8164 16.7614 22.8262 14.5002 22.8262C12.2388 22.8262 11.9554 22.8164 11.0673 22.7759C10.1812 22.7355 9.57581 22.5947 9.04635 22.389C8.49056 22.1799 7.98743 21.8522 7.57148 21.4285C7.148 21.0128 6.82033 20.5094 6.61124 19.9539C6.40548 19.4244 6.26454 18.8191 6.22427 17.933C6.18334 17.0448 6.17383 16.7612 6.17383 14.5C6.17383 12.2388 6.18334 11.9552 6.22405 11.0673C6.26432 10.1809 6.40504 9.57581 6.6108 9.04613C6.81989 8.49056 7.14778 7.98721 7.57148 7.57148C7.98721 7.14778 8.49056 6.82011 9.04613 6.61102C9.57581 6.40526 10.1809 6.26454 11.0673 6.22405C11.9552 6.18356 12.2388 6.17383 14.5 6.17383C16.7612 6.17383 17.0448 6.18356 17.9327 6.22427C18.8191 6.26454 19.4242 6.40526 19.9539 6.6108C20.5094 6.81989 21.0128 7.14778 21.4287 7.57148C21.8522 7.98743 22.1801 8.49056 22.389 9.04613C22.595 9.57581 22.7357 10.1809 22.7762 11.0673C22.8167 11.9552 22.8262 12.2388 22.8262 14.5C22.8262 16.7612 22.8167 17.0448 22.7759 17.9327Z" fill="#3B5998"/>
</g>
<defs>
<clipPath id="clip0_2_106">
<rect width="29" height="29" fill="white"/>
</clipPath>
</defs>
</svg>
