<svg width="215" height="192" viewBox="0 0 215 192" fill="none" xmlns="http://www.w3.org/2000/svg">
<path d="M155.663 49.4666C199.995 72.42 191.044 145.751 144.577 163.997C135.17 167.691 125.621 171.656 116.03 175.907C109.268 178.904 102.566 182.032 95.9534 185.257C49.2058 208.051 -13.9959 160.565 2.75512 111.328L24.082 48.6402C34.3284 18.5223 68.9743 4.58166 97.2252 19.2091L155.663 49.4666Z" fill="white"/>
<path opacity="0.78" d="M77.6499 140.442C56.6194 127.948 52.0099 99.0031 66.8456 79.5539C80.6025 61.5189 97.8949 37.3666 116.08 8.29348C127.167 -9.4328 162.23 3.79798 157.302 24.1172L131.578 130.183C127.122 148.557 106.162 157.379 89.9074 147.723L77.6499 140.442Z" fill="#FFB7B7"/>
<path opacity="0.78" d="M194.161 33.3234C226.285 49.7997 219.445 103.83 186.134 117.75C152.152 131.95 107.724 97.9501 119.499 63.0536L123.754 50.4428C131.817 26.5477 159.24 15.4121 181.68 26.9215L194.161 33.3234Z" fill="#FFF082"/>
</svg>
